<mxfile host="Electron" agent="Mozilla/5.0 (Windows NT 10.0; Win64; x64) AppleWebKit/537.36 (KHTML, like Gecko) draw.io/24.7.17 Chrome/128.0.6613.36 Electron/32.0.1 Safari/537.36" version="24.7.17">
  <diagram name="Page-1" id="vEHoGhZeKTkHsyrvR0kq">
    <mxGraphModel dx="2049" dy="1194" grid="1" gridSize="1" guides="1" tooltips="1" connect="1" arrows="1" fold="1" page="1" pageScale="1" pageWidth="3300" pageHeight="2339" math="0" shadow="0">
      <root>
        <mxCell id="0" />
        <mxCell id="1" parent="0" />
        <mxCell id="-r_qg4FtMJnu3XkmjTHc-1" value="Delivery" style="swimlane;whiteSpace=wrap;fillColor=#FFFFFF;" parent="1" vertex="1">
          <mxGeometry x="1328" y="219" width="349" height="1092" as="geometry" />
        </mxCell>
        <mxCell id="-r_qg4FtMJnu3XkmjTHc-2" style="edgeStyle=orthogonalEdgeStyle;rounded=0;orthogonalLoop=1;jettySize=auto;html=1;exitX=0.481;exitY=0.5;exitDx=0;exitDy=0;exitPerimeter=0;entryX=0.501;entryY=-0.069;entryDx=0;entryDy=0;entryPerimeter=0;fillColor=#FFFFC0;" parent="-r_qg4FtMJnu3XkmjTHc-1" source="-r_qg4FtMJnu3XkmjTHc-3" target="-r_qg4FtMJnu3XkmjTHc-4" edge="1">
          <mxGeometry relative="1" as="geometry">
            <mxPoint x="139.9142857142856" y="333" as="targetPoint" />
            <mxPoint x="140" y="290" as="sourcePoint" />
            <Array as="points">
              <mxPoint x="140" y="290" />
              <mxPoint x="140" y="290" />
            </Array>
          </mxGeometry>
        </mxCell>
        <mxCell id="-r_qg4FtMJnu3XkmjTHc-3" value="" style="line;strokeWidth=3;fillColor=#FFFFC0;align=left;verticalAlign=middle;spacingTop=-1;spacingLeft=3;spacingRight=3;rotatable=0;labelPosition=right;points=[];portConstraint=eastwest;strokeColor=inherit;" parent="-r_qg4FtMJnu3XkmjTHc-1" vertex="1">
          <mxGeometry x="75" y="276" width="135" height="8" as="geometry" />
        </mxCell>
        <mxCell id="-r_qg4FtMJnu3XkmjTHc-7" value="&lt;span style=&quot;text-wrap-mode: nowrap;&quot;&gt;Login&lt;/span&gt;" style="rounded=1;whiteSpace=wrap;html=1;fillColor=#66FF66;" parent="-r_qg4FtMJnu3XkmjTHc-1" vertex="1">
          <mxGeometry x="70" y="90" width="105.5" height="40" as="geometry" />
        </mxCell>
        <mxCell id="CW1NCr3fORPswm1vjvVJ-5" style="edgeStyle=orthogonalEdgeStyle;rounded=0;orthogonalLoop=1;jettySize=auto;html=1;entryX=0.5;entryY=0;entryDx=0;entryDy=0;" edge="1" parent="-r_qg4FtMJnu3XkmjTHc-1" source="-r_qg4FtMJnu3XkmjTHc-4" target="-r_qg4FtMJnu3XkmjTHc-6">
          <mxGeometry relative="1" as="geometry" />
        </mxCell>
        <mxCell id="CW1NCr3fORPswm1vjvVJ-9" style="edgeStyle=orthogonalEdgeStyle;rounded=0;orthogonalLoop=1;jettySize=auto;html=1;entryX=0.5;entryY=0;entryDx=0;entryDy=0;" edge="1" parent="-r_qg4FtMJnu3XkmjTHc-1" source="-r_qg4FtMJnu3XkmjTHc-4" target="ajTk26jlBCTTUkcFX-hW-12">
          <mxGeometry relative="1" as="geometry">
            <mxPoint x="139" y="447" as="targetPoint" />
          </mxGeometry>
        </mxCell>
        <mxCell id="-r_qg4FtMJnu3XkmjTHc-4" value="Choose action" style="rhombus;fillColor=#FFFFC0;strokeColor=#ff0000;" parent="-r_qg4FtMJnu3XkmjTHc-1" vertex="1">
          <mxGeometry x="84" y="305" width="110" height="50" as="geometry" />
        </mxCell>
        <mxCell id="-r_qg4FtMJnu3XkmjTHc-6" value="Add to delivery list" style="rounded=1;whiteSpace=wrap;html=1;fillColor=#FFFFC0;shadow=1;" parent="-r_qg4FtMJnu3XkmjTHc-1" vertex="1">
          <mxGeometry x="225" y="392" width="105.5" height="40" as="geometry" />
        </mxCell>
        <mxCell id="-r_qg4FtMJnu3XkmjTHc-10" style="edgeStyle=orthogonalEdgeStyle;rounded=0;orthogonalLoop=1;jettySize=auto;html=1;fillColor=#FFFFC0;" parent="-r_qg4FtMJnu3XkmjTHc-1" source="-r_qg4FtMJnu3XkmjTHc-11" target="-r_qg4FtMJnu3XkmjTHc-12" edge="1">
          <mxGeometry relative="1" as="geometry" />
        </mxCell>
        <mxCell id="-r_qg4FtMJnu3XkmjTHc-11" value="Update list orders status" style="rounded=1;whiteSpace=wrap;html=1;fillColor=#FFFFC0;shadow=1;" parent="-r_qg4FtMJnu3XkmjTHc-1" vertex="1">
          <mxGeometry x="373" y="470" width="105.5" height="40" as="geometry" />
        </mxCell>
        <mxCell id="-r_qg4FtMJnu3XkmjTHc-12" value="Send Tracking informaion&amp;nbsp;" style="rounded=1;whiteSpace=wrap;html=1;fillColor=#FFFFC0;shadow=1;" parent="-r_qg4FtMJnu3XkmjTHc-1" vertex="1">
          <mxGeometry x="374" y="542" width="105.5" height="36" as="geometry" />
        </mxCell>
        <mxCell id="-r_qg4FtMJnu3XkmjTHc-18" style="edgeStyle=orthogonalEdgeStyle;rounded=0;orthogonalLoop=1;jettySize=auto;html=1;exitX=0.5;exitY=1;exitDx=0;exitDy=0;fillColor=#FFFFC0;" parent="-r_qg4FtMJnu3XkmjTHc-1" source="-r_qg4FtMJnu3XkmjTHc-6" target="-r_qg4FtMJnu3XkmjTHc-11" edge="1">
          <mxGeometry relative="1" as="geometry">
            <Array as="points">
              <mxPoint x="278" y="453" />
              <mxPoint x="422" y="453" />
            </Array>
            <mxPoint x="139" y="477" as="sourcePoint" />
          </mxGeometry>
        </mxCell>
        <mxCell id="CW1NCr3fORPswm1vjvVJ-7" value="[Approve]" style="text;html=1;align=center;verticalAlign=middle;resizable=0;points=[];autosize=1;strokeColor=none;fillColor=none;" vertex="1" parent="-r_qg4FtMJnu3XkmjTHc-1">
          <mxGeometry x="194" y="310" width="70" height="27" as="geometry" />
        </mxCell>
        <mxCell id="CW1NCr3fORPswm1vjvVJ-8" value="[None]" style="text;html=1;align=center;verticalAlign=middle;resizable=0;points=[];autosize=1;strokeColor=none;fillColor=none;" vertex="1" parent="-r_qg4FtMJnu3XkmjTHc-1">
          <mxGeometry x="16" y="308" width="54" height="27" as="geometry" />
        </mxCell>
        <mxCell id="CW1NCr3fORPswm1vjvVJ-10" value="[Archive]" style="text;html=1;align=center;verticalAlign=middle;resizable=0;points=[];autosize=1;strokeColor=none;fillColor=none;" vertex="1" parent="-r_qg4FtMJnu3XkmjTHc-1">
          <mxGeometry x="81" y="353" width="66" height="27" as="geometry" />
        </mxCell>
        <mxCell id="ajTk26jlBCTTUkcFX-hW-12" value="Select state to archive" style="rounded=1;whiteSpace=wrap;html=1;fillColor=#FFFFC0;shadow=1;" parent="-r_qg4FtMJnu3XkmjTHc-1" vertex="1">
          <mxGeometry x="79" y="456" width="120" height="40" as="geometry" />
        </mxCell>
        <mxCell id="-r_qg4FtMJnu3XkmjTHc-8" value="System" style="swimlane;whiteSpace=wrap;fillColor=#FFFFFF;" parent="1" vertex="1">
          <mxGeometry x="1677" y="219" width="280" height="1091" as="geometry" />
        </mxCell>
        <mxCell id="-r_qg4FtMJnu3XkmjTHc-9" value="Display orders" style="rounded=1;whiteSpace=wrap;html=1;fillColor=#FFFFC0;shadow=1;" parent="-r_qg4FtMJnu3XkmjTHc-8" vertex="1">
          <mxGeometry x="87.25" y="200" width="105.5" height="40" as="geometry" />
        </mxCell>
        <mxCell id="-r_qg4FtMJnu3XkmjTHc-13" value="" style="edgeStyle=orthogonalEdgeStyle;rounded=0;orthogonalLoop=1;jettySize=auto;html=1;fillColor=#FFFFC0;" parent="-r_qg4FtMJnu3XkmjTHc-8" source="-r_qg4FtMJnu3XkmjTHc-14" target="-r_qg4FtMJnu3XkmjTHc-15" edge="1">
          <mxGeometry relative="1" as="geometry" />
        </mxCell>
        <mxCell id="-r_qg4FtMJnu3XkmjTHc-14" value="" style="ellipse;shape=startState;fillColor=#000000;strokeColor=#ff0000;" parent="-r_qg4FtMJnu3XkmjTHc-8" vertex="1">
          <mxGeometry x="125" y="30" width="30" height="30" as="geometry" />
        </mxCell>
        <mxCell id="-r_qg4FtMJnu3XkmjTHc-15" value="Is login?" style="rhombus;fillColor=#FFFFC0;strokeColor=#ff0000;" parent="-r_qg4FtMJnu3XkmjTHc-8" vertex="1">
          <mxGeometry x="100" y="90" width="80" height="40" as="geometry" />
        </mxCell>
        <mxCell id="-r_qg4FtMJnu3XkmjTHc-16" style="edgeStyle=orthogonalEdgeStyle;rounded=0;orthogonalLoop=1;jettySize=auto;html=1;entryX=0.5;entryY=0;entryDx=0;entryDy=0;fillColor=#FFFFC0;exitX=0.5;exitY=1;exitDx=0;exitDy=0;" parent="-r_qg4FtMJnu3XkmjTHc-8" source="-r_qg4FtMJnu3XkmjTHc-15" target="-r_qg4FtMJnu3XkmjTHc-9" edge="1">
          <mxGeometry relative="1" as="geometry">
            <Array as="points">
              <mxPoint x="140" y="180" />
              <mxPoint x="140" y="180" />
            </Array>
            <mxPoint x="-220" y="170" as="sourcePoint" />
            <mxPoint x="32.25" y="230" as="targetPoint" />
          </mxGeometry>
        </mxCell>
        <mxCell id="-r_qg4FtMJnu3XkmjTHc-17" value="[YES]" style="edgeLabel;html=1;align=center;verticalAlign=middle;resizable=0;points=[];fillColor=#FFFFC0;" parent="-r_qg4FtMJnu3XkmjTHc-16" vertex="1" connectable="0">
          <mxGeometry x="-0.0344" y="-2" relative="1" as="geometry">
            <mxPoint as="offset" />
          </mxGeometry>
        </mxCell>
        <mxCell id="CW1NCr3fORPswm1vjvVJ-19" style="edgeStyle=orthogonalEdgeStyle;rounded=0;orthogonalLoop=1;jettySize=auto;html=1;entryX=0.5;entryY=0;entryDx=0;entryDy=0;" edge="1" parent="-r_qg4FtMJnu3XkmjTHc-8" source="CW1NCr3fORPswm1vjvVJ-13" target="CW1NCr3fORPswm1vjvVJ-18">
          <mxGeometry relative="1" as="geometry" />
        </mxCell>
        <mxCell id="CW1NCr3fORPswm1vjvVJ-13" value="Update order state" style="rounded=1;whiteSpace=wrap;html=1;fillColor=#FFFFC0;shadow=1;" vertex="1" parent="-r_qg4FtMJnu3XkmjTHc-8">
          <mxGeometry x="68" y="663" width="120" height="40" as="geometry" />
        </mxCell>
        <mxCell id="CW1NCr3fORPswm1vjvVJ-18" value="Send notification" style="rounded=1;whiteSpace=wrap;html=1;fillColor=#FFFFC0;shadow=1;" vertex="1" parent="-r_qg4FtMJnu3XkmjTHc-8">
          <mxGeometry x="68" y="744" width="120" height="40" as="geometry" />
        </mxCell>
        <mxCell id="-r_qg4FtMJnu3XkmjTHc-19" style="edgeStyle=orthogonalEdgeStyle;rounded=0;orthogonalLoop=1;jettySize=auto;html=1;entryX=0.481;entryY=0.5;entryDx=0;entryDy=0;entryPerimeter=0;exitX=0.5;exitY=1;exitDx=0;exitDy=0;fillColor=#FFFFC0;" parent="1" source="-r_qg4FtMJnu3XkmjTHc-9" target="-r_qg4FtMJnu3XkmjTHc-3" edge="1">
          <mxGeometry relative="1" as="geometry">
            <Array as="points">
              <mxPoint x="1820" y="470" />
              <mxPoint x="1540" y="470" />
            </Array>
            <mxPoint x="1760" y="470" as="sourcePoint" />
            <mxPoint x="1540" y="490" as="targetPoint" />
          </mxGeometry>
        </mxCell>
        <mxCell id="-r_qg4FtMJnu3XkmjTHc-20" value="Customer" style="swimlane;whiteSpace=wrap;fillColor=#FFFFFF;" parent="1" vertex="1">
          <mxGeometry x="1957" y="219" width="277" height="1092" as="geometry" />
        </mxCell>
        <mxCell id="-r_qg4FtMJnu3XkmjTHc-24" value="Receive Tracking information" style="rounded=1;whiteSpace=wrap;html=1;fillColor=#FFFFC0;shadow=1;" parent="-r_qg4FtMJnu3XkmjTHc-20" vertex="1">
          <mxGeometry x="120" y="653" width="120" height="40" as="geometry" />
        </mxCell>
        <mxCell id="-r_qg4FtMJnu3XkmjTHc-27" value="&lt;span style=&quot;text-align: left;&quot;&gt;&lt;font style=&quot;font-size: 24px;&quot;&gt;Modify Orders Status&lt;/font&gt;&lt;/span&gt;" style="rounded=0;whiteSpace=wrap;html=1;" parent="1" vertex="1">
          <mxGeometry x="1328" y="189" width="1186" height="30" as="geometry" />
        </mxCell>
        <mxCell id="-r_qg4FtMJnu3XkmjTHc-28" value="" style="edgeStyle=orthogonalEdgeStyle;rounded=0;orthogonalLoop=1;jettySize=auto;html=1;fillColor=#FFFFC0;" parent="1" source="-r_qg4FtMJnu3XkmjTHc-7" target="-r_qg4FtMJnu3XkmjTHc-9" edge="1">
          <mxGeometry relative="1" as="geometry">
            <Array as="points">
              <mxPoint x="1523" y="440" />
            </Array>
          </mxGeometry>
        </mxCell>
        <mxCell id="-r_qg4FtMJnu3XkmjTHc-29" style="edgeStyle=orthogonalEdgeStyle;rounded=0;orthogonalLoop=1;jettySize=auto;html=1;fillColor=#FFFFC0;exitX=0;exitY=0.5;exitDx=0;exitDy=0;entryX=1;entryY=0.5;entryDx=0;entryDy=0;" parent="1" source="-r_qg4FtMJnu3XkmjTHc-15" target="-r_qg4FtMJnu3XkmjTHc-7" edge="1">
          <mxGeometry relative="1" as="geometry">
            <mxPoint x="1555" y="300" as="sourcePoint" />
            <mxPoint x="1690" y="280" as="targetPoint" />
          </mxGeometry>
        </mxCell>
        <mxCell id="-r_qg4FtMJnu3XkmjTHc-30" value="[NO]" style="edgeLabel;html=1;align=center;verticalAlign=middle;resizable=0;points=[];fillColor=#FFFFC0;" parent="-r_qg4FtMJnu3XkmjTHc-29" vertex="1" connectable="0">
          <mxGeometry x="-0.3953" relative="1" as="geometry">
            <mxPoint as="offset" />
          </mxGeometry>
        </mxCell>
        <mxCell id="8uFeKp76D9yrufBRtB4G-1" value="Admin" style="swimlane;whiteSpace=wrap;fillColor=#FFFFFF;" parent="1" vertex="1">
          <mxGeometry x="2234" y="220" width="280" height="1090" as="geometry" />
        </mxCell>
        <mxCell id="8uFeKp76D9yrufBRtB4G-5" value="Receive Tracking information" style="rounded=1;whiteSpace=wrap;html=1;fillColor=#FFFFC0;shadow=1;" parent="8uFeKp76D9yrufBRtB4G-1" vertex="1">
          <mxGeometry x="18" y="657" width="109" height="38" as="geometry" />
        </mxCell>
        <mxCell id="8uFeKp76D9yrufBRtB4G-9" value="" style="line;strokeWidth=3;fillColor=#FFFFC0;align=left;verticalAlign=middle;spacingTop=-1;spacingLeft=3;spacingRight=3;rotatable=0;labelPosition=right;points=[];portConstraint=eastwest;strokeColor=inherit;" parent="8uFeKp76D9yrufBRtB4G-1" vertex="1">
          <mxGeometry x="-127" y="723" width="255" height="8" as="geometry" />
        </mxCell>
        <mxCell id="8uFeKp76D9yrufBRtB4G-14" value="" style="endArrow=classic;html=1;rounded=0;entryX=0.784;entryY=0.5;entryDx=0;entryDy=0;exitX=0.5;exitY=1;exitDx=0;exitDy=0;entryPerimeter=0;" parent="8uFeKp76D9yrufBRtB4G-1" source="8uFeKp76D9yrufBRtB4G-5" target="8uFeKp76D9yrufBRtB4G-9" edge="1">
          <mxGeometry width="50" height="50" relative="1" as="geometry">
            <mxPoint x="89" y="629" as="sourcePoint" />
            <mxPoint x="90" y="681" as="targetPoint" />
          </mxGeometry>
        </mxCell>
        <mxCell id="8uFeKp76D9yrufBRtB4G-7" value="" style="line;strokeWidth=3;fillColor=#FFFFC0;align=left;verticalAlign=middle;spacingTop=-1;spacingLeft=3;spacingRight=3;rotatable=0;labelPosition=right;points=[];portConstraint=eastwest;strokeColor=inherit;" parent="8uFeKp76D9yrufBRtB4G-1" vertex="1">
          <mxGeometry x="-126" y="620" width="255" height="20" as="geometry" />
        </mxCell>
        <mxCell id="8uFeKp76D9yrufBRtB4G-12" value="" style="endArrow=classic;html=1;rounded=0;entryX=0.5;entryY=0;entryDx=0;entryDy=0;exitX=0.776;exitY=0.55;exitDx=0;exitDy=0;exitPerimeter=0;" parent="8uFeKp76D9yrufBRtB4G-1" source="8uFeKp76D9yrufBRtB4G-7" target="8uFeKp76D9yrufBRtB4G-5" edge="1">
          <mxGeometry width="50" height="50" relative="1" as="geometry">
            <mxPoint x="90" y="620" as="sourcePoint" />
            <mxPoint x="81" y="670" as="targetPoint" />
          </mxGeometry>
        </mxCell>
        <mxCell id="CW1NCr3fORPswm1vjvVJ-16" value="Receive notification" style="rounded=1;whiteSpace=wrap;html=1;fillColor=#FFFFC0;shadow=1;" vertex="1" parent="8uFeKp76D9yrufBRtB4G-1">
          <mxGeometry x="7" y="827" width="120" height="40" as="geometry" />
        </mxCell>
        <mxCell id="-r_qg4FtMJnu3XkmjTHc-22" value="" style="ellipse;shape=endState;fillColor=#000000;strokeColor=#ff0000" parent="8uFeKp76D9yrufBRtB4G-1" vertex="1">
          <mxGeometry x="117" y="1045" width="30" height="30" as="geometry" />
        </mxCell>
        <mxCell id="CW1NCr3fORPswm1vjvVJ-22" value="" style="line;strokeWidth=3;fillColor=#FFFFC0;align=left;verticalAlign=middle;spacingTop=-1;spacingLeft=3;spacingRight=3;rotatable=0;labelPosition=right;points=[];portConstraint=eastwest;strokeColor=inherit;" vertex="1" parent="8uFeKp76D9yrufBRtB4G-1">
          <mxGeometry x="67" y="984" width="135" height="8" as="geometry" />
        </mxCell>
        <mxCell id="CW1NCr3fORPswm1vjvVJ-34" style="edgeStyle=orthogonalEdgeStyle;rounded=0;orthogonalLoop=1;jettySize=auto;html=1;entryX=0.378;entryY=0;entryDx=0;entryDy=0;entryPerimeter=0;" edge="1" parent="8uFeKp76D9yrufBRtB4G-1" source="CW1NCr3fORPswm1vjvVJ-16" target="CW1NCr3fORPswm1vjvVJ-22">
          <mxGeometry relative="1" as="geometry" />
        </mxCell>
        <mxCell id="CW1NCr3fORPswm1vjvVJ-35" style="edgeStyle=orthogonalEdgeStyle;rounded=0;orthogonalLoop=1;jettySize=auto;html=1;exitX=0.481;exitY=0.875;exitDx=0;exitDy=0;exitPerimeter=0;" edge="1" parent="8uFeKp76D9yrufBRtB4G-1" source="CW1NCr3fORPswm1vjvVJ-22" target="-r_qg4FtMJnu3XkmjTHc-22">
          <mxGeometry relative="1" as="geometry" />
        </mxCell>
        <mxCell id="8uFeKp76D9yrufBRtB4G-15" value="" style="endArrow=classic;html=1;rounded=0;entryX=0.118;entryY=0.5;entryDx=0;entryDy=0;exitX=0.5;exitY=1;exitDx=0;exitDy=0;entryPerimeter=0;" parent="1" source="-r_qg4FtMJnu3XkmjTHc-24" target="8uFeKp76D9yrufBRtB4G-9" edge="1">
          <mxGeometry width="50" height="50" relative="1" as="geometry">
            <mxPoint x="2162" y="943" as="sourcePoint" />
            <mxPoint x="2163" y="987" as="targetPoint" />
          </mxGeometry>
        </mxCell>
        <mxCell id="8uFeKp76D9yrufBRtB4G-10" value="" style="endArrow=classic;html=1;rounded=0;exitX=0.114;exitY=0.45;exitDx=0;exitDy=0;exitPerimeter=0;entryX=0.5;entryY=0;entryDx=0;entryDy=0;" parent="1" source="8uFeKp76D9yrufBRtB4G-7" target="-r_qg4FtMJnu3XkmjTHc-24" edge="1">
          <mxGeometry width="50" height="50" relative="1" as="geometry">
            <mxPoint x="2140" y="800" as="sourcePoint" />
            <mxPoint x="2190" y="750" as="targetPoint" />
          </mxGeometry>
        </mxCell>
        <mxCell id="ajTk26jlBCTTUkcFX-hW-2" style="edgeStyle=orthogonalEdgeStyle;rounded=0;orthogonalLoop=1;jettySize=auto;html=1;exitX=0.5;exitY=1;exitDx=0;exitDy=0;" parent="1" source="-r_qg4FtMJnu3XkmjTHc-12" edge="1">
          <mxGeometry relative="1" as="geometry">
            <mxPoint x="2207" y="844" as="targetPoint" />
          </mxGeometry>
        </mxCell>
        <mxCell id="ajTk26jlBCTTUkcFX-hW-4" value="" style="line;strokeWidth=3;fillColor=#FFFFC0;align=left;verticalAlign=middle;spacingTop=-1;spacingLeft=3;spacingRight=3;rotatable=0;labelPosition=right;points=[];portConstraint=eastwest;strokeColor=inherit;" parent="1" vertex="1">
          <mxGeometry x="2109" y="841" width="255" height="20" as="geometry" />
        </mxCell>
        <mxCell id="ajTk26jlBCTTUkcFX-hW-5" value="" style="line;strokeWidth=3;fillColor=#FFFFC0;align=left;verticalAlign=middle;spacingTop=-1;spacingLeft=3;spacingRight=3;rotatable=0;labelPosition=right;points=[];portConstraint=eastwest;strokeColor=inherit;" parent="1" vertex="1">
          <mxGeometry x="2108" y="944" width="255" height="8" as="geometry" />
        </mxCell>
        <mxCell id="CW1NCr3fORPswm1vjvVJ-14" value="" style="edgeStyle=orthogonalEdgeStyle;rounded=0;orthogonalLoop=1;jettySize=auto;html=1;" edge="1" parent="1" source="ajTk26jlBCTTUkcFX-hW-12" target="CW1NCr3fORPswm1vjvVJ-13">
          <mxGeometry relative="1" as="geometry">
            <Array as="points">
              <mxPoint x="1467" y="848" />
              <mxPoint x="1807" y="848" />
            </Array>
          </mxGeometry>
        </mxCell>
        <mxCell id="CW1NCr3fORPswm1vjvVJ-29" style="edgeStyle=orthogonalEdgeStyle;rounded=0;orthogonalLoop=1;jettySize=auto;html=1;entryX=0.5;entryY=0;entryDx=0;entryDy=0;" edge="1" parent="1" source="CW1NCr3fORPswm1vjvVJ-18" target="CW1NCr3fORPswm1vjvVJ-16">
          <mxGeometry relative="1" as="geometry">
            <Array as="points">
              <mxPoint x="1805" y="1024" />
              <mxPoint x="2301" y="1024" />
            </Array>
          </mxGeometry>
        </mxCell>
        <mxCell id="CW1NCr3fORPswm1vjvVJ-31" style="edgeStyle=orthogonalEdgeStyle;rounded=0;orthogonalLoop=1;jettySize=auto;html=1;entryX=0.741;entryY=0;entryDx=0;entryDy=0;entryPerimeter=0;" edge="1" parent="1" source="ajTk26jlBCTTUkcFX-hW-5" target="CW1NCr3fORPswm1vjvVJ-22">
          <mxGeometry relative="1" as="geometry">
            <Array as="points">
              <mxPoint x="2256" y="968" />
              <mxPoint x="2401" y="968" />
            </Array>
          </mxGeometry>
        </mxCell>
        <mxCell id="CW1NCr3fORPswm1vjvVJ-33" style="edgeStyle=orthogonalEdgeStyle;rounded=0;orthogonalLoop=1;jettySize=auto;html=1;exitX=0;exitY=0.5;exitDx=0;exitDy=0;entryX=0.096;entryY=0;entryDx=0;entryDy=0;entryPerimeter=0;" edge="1" parent="1" source="-r_qg4FtMJnu3XkmjTHc-4" target="CW1NCr3fORPswm1vjvVJ-22">
          <mxGeometry relative="1" as="geometry">
            <Array as="points">
              <mxPoint x="1392" y="549" />
              <mxPoint x="1392" y="1182" />
              <mxPoint x="2314" y="1182" />
            </Array>
          </mxGeometry>
        </mxCell>
      </root>
    </mxGraphModel>
  </diagram>
</mxfile>
